<svg width="255" height="42" viewBox="0 0 255 42" fill="none" xmlns="http://www.w3.org/2000/svg">
<g clip-path="url(#clip0_273_268)">
<path d="M156.532 13.7397H151.952C150.13 13.7397 148.383 14.4635 147.094 15.7519C145.806 17.0402 145.082 18.7876 145.082 20.6096V32.0593H140.502V9.15981H145.082V11.4498C147.062 9.96005 149.474 9.15616 151.952 9.15981H156.532V13.7397ZM113.023 20.6096C113.023 23.6462 111.817 26.5585 109.669 28.7058C107.522 30.853 104.61 32.0593 101.573 32.0593H90.1234V9.15981H101.573C104.61 9.15981 107.522 10.3661 109.669 12.5134C111.817 14.6606 113.023 17.5729 113.023 20.6096ZM108.443 20.6096C108.443 18.7876 107.719 17.0402 106.431 15.7519C105.143 14.4635 103.395 13.7397 101.573 13.7397H94.7033V27.4794H101.573C103.395 27.4794 105.143 26.7556 106.431 25.4673C107.719 24.1789 108.443 22.4316 108.443 20.6096ZM138.212 20.6096C138.212 22.8741 137.541 25.0878 136.283 26.9707C135.025 28.8536 133.236 30.3212 131.144 31.1878C129.052 32.0544 126.75 32.2811 124.529 31.8393C122.308 31.3975 120.268 30.3071 118.666 28.7058C117.065 27.1045 115.975 25.0644 115.533 22.8433C115.091 20.6223 115.318 18.3201 116.184 16.2279C117.051 14.1358 118.519 12.3476 120.402 11.0894C122.284 9.83133 124.498 9.15981 126.763 9.15981C129.799 9.15981 132.712 10.3661 134.859 12.5134C137.006 14.6606 138.212 17.5729 138.212 20.6096ZM133.633 20.6096C133.633 19.2508 133.23 17.9226 132.475 16.7929C131.72 15.6631 130.647 14.7826 129.392 14.2627C128.136 13.7427 126.755 13.6066 125.422 13.8717C124.09 14.1368 122.866 14.7911 121.905 15.7519C120.944 16.7126 120.29 17.9367 120.025 19.2693C119.76 20.602 119.896 21.9833 120.416 23.2386C120.936 24.4939 121.816 25.5668 122.946 26.3217C124.076 27.0765 125.404 27.4794 126.763 27.4794C128.585 27.4794 130.332 26.7556 131.62 25.4673C132.909 24.1789 133.633 22.4316 133.633 20.6096ZM179.432 20.6096C179.432 22.8741 178.76 25.0878 177.502 26.9707C176.244 28.8536 174.456 30.3212 172.363 31.1878C170.271 32.0544 167.969 32.2811 165.748 31.8393C163.527 31.3975 161.487 30.3071 159.886 28.7058C158.284 27.1045 157.194 25.0644 156.752 22.8433C156.31 20.6223 156.537 18.3201 157.404 16.2279C158.27 14.1358 159.738 12.3476 161.621 11.0894C163.504 9.83133 165.717 9.15981 167.982 9.15981C171.018 9.15981 173.931 10.3661 176.078 12.5134C178.225 14.6606 179.432 17.5729 179.432 20.6096ZM174.852 20.6096C174.852 19.2508 174.449 17.9226 173.694 16.7929C172.939 15.6631 171.866 14.7826 170.611 14.2627C169.355 13.7427 167.974 13.6066 166.642 13.8717C165.309 14.1368 164.085 14.7911 163.124 15.7519C162.163 16.7126 161.509 17.9367 161.244 19.2693C160.979 20.602 161.115 21.9833 161.635 23.2386C162.155 24.4939 163.035 25.5668 164.165 26.3217C165.295 27.0765 166.623 27.4794 167.982 27.4794C169.804 27.4794 171.551 26.7556 172.84 25.4673C174.128 24.1789 174.852 22.4316 174.852 20.6096ZM229.811 20.6096C229.811 21.3786 229.735 22.1458 229.582 22.8995H211.885C212.36 24.2378 213.237 25.3964 214.397 26.2164C215.556 27.0364 216.941 27.4776 218.361 27.4794H229.811V32.0593H218.361C216.096 32.0593 213.883 31.3878 212 30.1297C210.117 28.8716 208.649 27.0834 207.783 24.9912C206.916 22.899 206.689 20.5969 207.131 18.3758C207.573 16.1548 208.663 14.1146 210.265 12.5134C211.866 10.9121 213.906 9.82161 216.127 9.37982C218.348 8.93803 220.65 9.16477 222.742 10.0314C224.835 10.898 226.623 12.3655 227.881 14.2484C229.139 16.1313 229.811 18.345 229.811 20.6096ZM224.837 18.3196C224.363 16.9809 223.486 15.822 222.326 15.0023C221.166 14.1826 219.781 13.7425 218.361 13.7425C216.941 13.7425 215.555 14.1826 214.396 15.0023C213.236 15.822 212.359 16.9809 211.885 18.3196H224.837ZM250.026 22.8995H237.074C237.549 24.2378 238.427 25.3964 239.586 26.2164C240.745 27.0364 242.13 27.4776 243.55 27.4794H255V32.0593H243.55C241.191 32.0565 238.891 31.3243 236.964 29.9631C235.038 28.6018 233.579 26.6781 232.789 24.4556C231.999 22.233 231.915 19.8204 232.549 17.5484C233.183 15.2763 234.505 13.256 236.332 11.7643C238.159 10.2726 240.403 9.38241 242.756 9.21584C245.109 9.04928 247.456 9.61443 249.476 10.8339C251.495 12.0533 253.088 13.8673 254.036 16.0274C254.984 18.1874 255.241 20.5878 254.771 22.8995H250.026ZM250.026 18.3196C249.552 16.9809 248.675 15.822 247.515 15.0023C246.356 14.1826 244.97 13.7425 243.55 13.7425C242.13 13.7425 240.745 14.1826 239.585 15.0023C238.425 15.822 237.548 16.9809 237.074 18.3196H250.026ZM204.513 22.1622C204.532 22.0339 204.55 21.9034 204.564 21.7729C204.564 21.6881 204.564 21.6034 204.582 21.5164C204.6 21.4294 204.6 21.3034 204.607 21.1958C204.607 21.0012 204.621 20.8065 204.621 20.6096C204.622 19.8405 204.545 19.0733 204.392 18.3196H186.695C187.17 16.9813 188.048 15.8227 189.207 15.0027C190.366 14.1828 191.751 13.7416 193.171 13.7397H204.621V9.15981H193.171C190.532 9.15927 187.973 10.0707 185.928 11.7399C183.884 13.4091 182.478 15.7334 181.951 18.3196C181.951 18.3746 181.932 18.4318 181.921 18.4891C181.898 18.6173 181.873 18.7456 181.852 18.8761C181.852 18.9356 181.838 18.9974 181.829 19.057C181.813 19.1875 181.795 19.3157 181.781 19.4463C181.781 19.531 181.767 19.618 181.76 19.705C181.754 19.7921 181.742 19.9157 181.738 20.0233C181.738 20.218 181.722 20.4126 181.722 20.6096C181.722 21.3786 181.799 22.1457 181.951 22.8995H199.647C199.174 24.2388 198.297 25.3983 197.137 26.2185C195.977 27.0387 194.592 27.4792 193.171 27.4794H181.722V32.0593H193.171C195.811 32.0599 198.369 31.1484 200.414 29.4793C202.459 27.8101 203.864 25.4857 204.392 22.8995C204.392 22.8446 204.413 22.7873 204.422 22.7301C204.447 22.6018 204.472 22.4736 204.491 22.3431C204.493 22.2835 204.507 22.2125 204.513 22.1622Z" fill="#505050"/>
<path d="M8.6858 8.68579C5.56087 11.8559 3.81615 16.1331 3.83214 20.5845C3.84813 25.0359 5.62352 29.3004 8.77115 32.448C11.9188 35.5956 16.1833 37.371 20.6347 37.387C25.0861 37.403 29.3632 35.6583 32.5334 32.5334L52.4056 12.6611C53.9777 11.0889 55.9807 10.0181 58.1613 9.58429C60.342 9.15044 62.6023 9.37298 64.6565 10.2238C66.7106 11.0746 68.4664 12.5154 69.7016 14.3641C70.9369 16.2127 71.5962 18.3862 71.5962 20.6096C71.5962 22.833 70.9369 25.0064 69.7016 26.8551C68.4664 28.7037 66.7106 30.1446 64.6565 30.9954C62.6023 31.8462 60.342 32.0687 58.1613 31.6349C55.9807 31.201 53.9777 30.1303 52.4056 28.558L47.1066 23.2591L43.1313 27.2344L48.4302 32.5334C50.7886 34.8918 53.7933 36.498 57.0645 37.1487C60.3356 37.7994 63.7263 37.4655 66.8077 36.1892C69.8891 34.9129 72.5228 32.7515 74.3758 29.9784C76.2288 27.2052 77.2178 23.9448 77.2178 20.6096C77.2178 17.2743 76.2288 14.0139 74.3758 11.2408C72.5228 8.46762 69.8891 6.30623 66.8077 5.02992C63.7263 3.75361 60.3356 3.41971 57.0645 4.07045C53.7933 4.72119 50.7886 6.32734 48.4302 8.68579L28.558 28.558C26.9859 30.1303 24.9829 31.201 22.8023 31.6349C20.6216 32.0687 18.3613 31.8462 16.3071 30.9954C14.253 30.1446 12.4972 28.7037 11.262 26.8551C10.0267 25.0064 9.36735 22.833 9.36735 20.6096C9.36735 18.3862 10.0267 16.2127 11.262 14.3641C12.4972 12.5154 14.253 11.0746 16.3071 10.2238C18.3613 9.37298 20.6216 9.15044 22.8023 9.58429C24.9829 10.0181 26.9859 11.0889 28.558 12.6611L33.857 17.9601L37.8323 13.9847L32.5334 8.68579C30.9676 7.11972 29.1087 5.87742 27.0628 5.02985C25.0169 4.18227 22.8241 3.74603 20.6096 3.74603C18.3951 3.74603 16.2022 4.18227 14.1563 5.02985C12.1104 5.87742 10.2515 7.11972 8.6858 8.68579Z" fill="url(#paint0_linear_273_268)"/>
<path d="M74.9272 6.03631C73.0134 4.12251 70.7414 2.6044 68.241 1.56865C65.7405 0.532909 63.0605 -0.000183105 60.354 -0.000183105C57.6474 -0.000183105 54.9674 0.532909 52.4669 1.56865C49.9665 2.6044 47.6945 4.12251 45.7807 6.03631L39.1581 12.6611L32.5333 19.2837L25.9085 25.9085C24.8605 26.9562 23.5254 27.6696 22.072 27.9585C20.6187 28.2474 19.1122 28.0989 17.7433 27.5317C16.3743 26.9646 15.2042 26.0042 14.381 24.7721C13.5578 23.54 13.1184 22.0914 13.1184 20.6096C13.1184 19.1277 13.5578 17.6792 14.381 16.4471C15.2042 15.2149 16.3743 14.2546 17.7433 13.6874C19.1122 13.1202 20.6187 12.9717 22.072 13.2606C23.5254 13.5496 24.8605 14.263 25.9085 15.3106L31.2074 20.6096L32.5333 19.2837L27.2344 13.9847C25.9241 12.6747 24.2549 11.7826 22.4377 11.4213C20.6205 11.0599 18.7369 11.2455 17.0252 11.9546C15.3134 12.6637 13.8504 13.8645 12.8211 15.405C11.7918 16.9456 11.2424 18.7568 11.2424 20.6096C11.2424 22.4624 11.7918 24.2736 12.8211 25.8141C13.8504 27.3547 15.3134 28.5554 17.0252 29.2645C18.7369 29.9736 20.6205 30.1592 22.4377 29.7979C24.2549 29.4365 25.9241 28.5444 27.2344 27.2344L47.1066 7.3622C49.7268 4.74152 53.0653 2.95669 56.6999 2.23346C60.3345 1.51022 64.1019 1.88105 67.5257 3.29906C70.9496 4.71707 73.876 7.11856 75.935 10.1998C77.9939 13.2811 79.0928 16.9037 79.0928 20.6096C79.0928 24.3154 77.9939 27.9381 75.935 31.0193C73.876 34.1006 70.9496 36.5021 67.5257 37.9201C64.1019 39.3381 60.3345 39.7089 56.6999 38.9857C53.0653 38.2625 49.7268 36.4776 47.1066 33.8569L41.8076 28.558L48.4302 21.9355L53.7314 27.2344C55.0416 28.5444 56.7109 29.4365 58.5281 29.7979C60.3453 30.1592 62.2289 29.9736 63.9406 29.2645C65.6523 28.5554 67.1154 27.3547 68.1447 25.8141C69.174 24.2736 69.7234 22.4624 69.7234 20.6096C69.7234 18.7568 69.174 16.9456 68.1447 15.405C67.1154 13.8645 65.6523 12.6637 63.9406 11.9546C62.2289 11.2455 60.3453 11.0599 58.5281 11.4213C56.7109 11.7826 55.0416 12.6747 53.7314 13.9847L33.8569 33.8569C31.2369 36.4769 27.8988 38.261 24.2647 38.9838C20.6307 39.7066 16.8639 39.3355 13.4408 37.9175C10.0176 36.4996 7.09183 34.0984 5.03334 31.0176C2.97486 27.9368 1.87615 24.3148 1.87615 20.6096C1.87615 16.9044 2.97486 13.2824 5.03334 10.2016C7.09183 7.12078 10.0176 4.71959 13.4408 3.30162C16.8639 1.88365 20.6307 1.51258 24.2647 2.23536C27.8988 2.95813 31.2369 4.74229 33.8569 7.3622L39.1581 12.6611L40.4817 11.3353L35.1828 6.03631C32.3005 3.15404 28.6282 1.19119 24.6303 0.395988C20.6325 -0.399216 16.4886 0.00893695 12.7227 1.56883C8.95681 3.12873 5.73804 5.77031 3.47345 9.15953C1.20885 12.5488 0.00012207 16.5334 0.00012207 20.6096C0.00012207 24.6858 1.20885 28.6704 3.47345 32.0596C5.73804 35.4488 8.95681 38.0904 12.7227 39.6503C16.4886 41.2102 20.6325 41.6184 24.6303 40.8232C28.6282 40.028 32.3005 38.0651 35.1828 35.1828L41.3931 28.9725L40.4772 29.8885L45.7761 35.1874C47.6902 37.1015 49.9626 38.6198 52.4634 39.6557C54.9643 40.6916 57.6447 41.2248 60.3517 41.2248C63.0586 41.2248 65.739 40.6916 68.2399 39.6557C70.7408 38.6198 73.0131 37.1015 74.9272 35.1874C76.8413 33.2733 78.3596 31.001 79.3955 28.5001C80.4314 25.9992 80.9646 23.3188 80.9646 20.6119C80.9646 17.9049 80.4314 15.2245 79.3955 12.7236C78.3596 10.2228 76.8413 7.9504 74.9272 6.03631ZM55.055 15.3106C56.103 14.263 57.438 13.5496 58.8914 13.2606C60.3448 12.9717 61.8512 13.1202 63.2202 13.6874C64.5892 14.2546 65.7593 15.2149 66.5825 16.4471C67.4057 17.6792 67.8451 19.1277 67.8451 20.6096C67.8451 22.0914 67.4057 23.54 66.5825 24.7721C65.7593 26.0042 64.5892 26.9646 63.2202 27.5317C61.8512 28.0989 60.3448 28.2474 58.8914 27.9585C57.438 27.6696 56.103 26.9562 55.055 25.9085L49.7561 20.6096L49.3782 20.9874L55.055 15.3106Z" fill="url(#paint1_linear_273_268)"/>
</g>
<defs>
<linearGradient id="paint0_linear_273_268" x1="3.74638" y1="20.6096" x2="77.2172" y2="20.6096" gradientUnits="userSpaceOnUse">
<stop stop-color="#32B8DF"/>
<stop offset="1" stop-color="#4EBD88"/>
</linearGradient>
<linearGradient id="paint1_linear_273_268" x1="-5.64061e-05" y1="20.6096" x2="80.9635" y2="20.6096" gradientUnits="userSpaceOnUse">
<stop stop-color="#32B8DF"/>
<stop offset="1" stop-color="#4EBD88"/>
</linearGradient>
<clipPath id="clip0_273_268">
<rect width="255" height="41.2192" fill="white"/>
</clipPath>
</defs>
</svg>
